<?xml version="1.0" encoding="UTF-8"?>
<svg version="1.1" xmlns="http://www.w3.org/2000/svg" width="225" height="225">
<path d="M0 0 C74.25 0 148.5 0 225 0 C225 74.25 225 148.5 225 225 C150.75 225 76.5 225 0 225 C0 150.75 0 76.5 0 0 Z " fill="#FCFCFC" transform="translate(0,0)"/>
<path d="M0 0 C74.25 0 148.5 0 225 0 C225 74.25 225 148.5 225 225 C150.75 225 76.5 225 0 225 C0 150.75 0 76.5 0 0 Z M43.4453125 51.25390625 C28.22692404 68.34420512 20.56508394 89.60036689 20.6875 112.375 C20.69313965 113.4777124 20.6987793 114.5804248 20.70458984 115.71655273 C20.82094658 123.50957401 21.45605072 130.58729386 24 138 C24.20931152 138.63196289 24.41862305 139.26392578 24.63427734 139.91503906 C27.51143172 148.51188673 30.78552174 156.52064735 36 164 C36.51046875 164.7321875 37.0209375 165.464375 37.546875 166.21875 C50.98604043 184.39362134 70.57670898 198.45237468 93 203 C120.37551402 207.02291238 145.59434974 202.4269224 168.1328125 186.2109375 C175.19455286 180.76550828 180.54838392 175.02695172 186 168 C186.62261719 167.21625 187.24523437 166.4325 187.88671875 165.625 C202.88469638 145.67263425 206.57211654 120.80597323 203.70263672 96.47900391 C200.50979755 77.03405473 190.26644293 61.07479249 177 47 C176.13761719 46.0409375 176.13761719 46.0409375 175.2578125 45.0625 C162.29606337 31.17048179 140.80913871 22.0867418 121.99536133 20.79345703 C118.88964713 20.69737579 115.79463338 20.67073575 112.6875 20.6875 C111.58809082 20.69313965 110.48868164 20.6987793 109.35595703 20.70458984 C83.32195832 21.09304218 61.42543588 32.73832465 43.4453125 51.25390625 Z " fill="#FDFDFD" transform="translate(0,0)"/>
<path d="M0 0 C8.74869436 6.24490829 13.96184734 15.02990392 16.47265625 25.42578125 C17.86917288 36.04215768 15.55504492 46.84173568 9.03515625 55.42578125 C7.87236039 56.78071291 6.68664722 58.11652193 5.47265625 59.42578125 C4.98023438 59.97363281 4.4878125 60.52148438 3.98046875 61.0859375 C2.66015625 62.48828125 2.66015625 62.48828125 0.47265625 64.42578125 C-0.18734375 64.42578125 -0.84734375 64.42578125 -1.52734375 64.42578125 C-1.52734375 65.08578125 -1.52734375 65.74578125 -1.52734375 66.42578125 C-0.66109375 66.67328125 0.20515625 66.92078125 1.09765625 67.17578125 C4.73534204 68.52307228 7.34795084 70.13007932 10.47265625 72.42578125 C11.01792969 72.82410156 11.56320313 73.22242187 12.125 73.6328125 C21.87068193 81.30118355 29.1581864 93.20248734 31.47265625 105.42578125 C31.53890132 107.17465106 31.5581822 108.92580873 31.53515625 110.67578125 C31.52613281 111.5678125 31.51710938 112.45984375 31.5078125 113.37890625 C31.49621094 114.054375 31.48460937 114.72984375 31.47265625 115.42578125 C28.50265625 115.42578125 25.53265625 115.42578125 22.47265625 115.42578125 C22.32570313 114.554375 22.17875 113.68296875 22.02734375 112.78515625 C19.55788934 99.67150179 15.21744824 88.93067146 4.47265625 80.42578125 C-6.7575037 72.98700009 -17.34082239 71.38951238 -30.52734375 72.42578125 C-41.9993943 74.91847372 -52.83603679 82.17263155 -59.22265625 92.046875 C-63.38450236 99.6166096 -64.79336955 106.87118545 -65.52734375 115.42578125 C-68.82734375 115.42578125 -72.12734375 115.42578125 -75.52734375 115.42578125 C-76.34874219 101.4620078 -71.00538105 89.93782815 -62.27734375 79.23828125 C-58.26333838 74.82198136 -53.4756132 71.69976187 -48.52734375 68.42578125 C-47.18667184 67.43564156 -45.85075517 66.43887551 -44.52734375 65.42578125 C-45.09582031 65.01070313 -45.66429688 64.595625 -46.25 64.16796875 C-54.22506278 57.80389528 -60.15113724 48.74733009 -61.52734375 38.42578125 C-62.36945193 26.06946321 -60.53177765 16.10434511 -52.52734375 6.42578125 C-38.09545455 -8.87582632 -17.73467793 -11.04648409 0 0 Z " fill="#393939" transform="translate(134.52734375,54.57421875)"/>
<path d="M0 0 C0.63196289 0.20931152 1.26392578 0.41862305 1.91503906 0.63427734 C25.51676282 8.53319626 45.67933799 24.27905345 56.97265625 46.8203125 C67.17047945 68.30924622 70.30868119 93.20777429 62.484375 116.05078125 C61.99591787 117.36955107 61.50124614 118.68603785 61 120 C60.64711914 120.96365479 60.64711914 120.96365479 60.28710938 121.94677734 C57.24301799 130.1419242 53.36590924 137.12631461 48 144 C47.35546875 144.88171875 46.7109375 145.7634375 46.046875 146.671875 C33.59819995 162.99347117 15.7420466 173.07058911 -4 178 C-4.98093628 178.26490234 -4.98093628 178.26490234 -5.98168945 178.53515625 C-12.12487061 180.0800249 -17.99647789 180.31109248 -24.3125 180.25 C-25.33214844 180.24250732 -26.35179688 180.23501465 -27.40234375 180.22729492 C-54.9288456 179.83349346 -76.40717539 168.33978079 -95.49609375 148.81640625 C-110.19927527 132.27819428 -117.43030742 110.52226408 -117.3125 88.6875 C-117.30686035 87.58809082 -117.3012207 86.48868164 -117.29541016 85.35595703 C-116.90695782 59.32195832 -105.26167535 37.42543588 -86.74609375 19.4453125 C-64.0871482 -0.73178553 -29.26889652 -10.04472413 0 0 Z M-86.59619141 32.45068359 C-102.74878691 50.27753074 -108.83888223 71.85152278 -108.13623047 95.52783203 C-107.05989697 115.0600058 -97.4060325 131.49294587 -85 146 C-84.505 146.60328125 -84.01 147.2065625 -83.5 147.828125 C-75.08213597 157.21053595 -61.78889181 164.08099002 -50 168 C-48.56914063 168.47566406 -48.56914063 168.47566406 -47.109375 168.9609375 C-25.92395657 174.88199034 -3.0598511 170.60791505 16.0390625 160.37109375 C36.23934875 148.10866646 49.32747373 129.6693593 55.30859375 107.0859375 C59.95932507 86.32843613 56.88163205 64.31004989 45.82910156 46.06738281 C32.64907578 25.63152741 13.74152328 12.46525165 -10 7 C-38.28717595 1.18070358 -66.88611399 12.04949999 -86.59619141 32.45068359 Z " fill="#383838" transform="translate(138,24)"/>
<path d="M0 0 C6.70236738 4.50980999 11.79819816 10.12432417 14 18 C15.34446115 29.23585388 13.81452882 37.40743254 6.875 46.25 C1.17967922 52.24507451 -4.56944325 55.13158118 -12.90478516 55.58959961 C-22.66364154 55.75448357 -29.66661702 53.3040368 -36.875 46.6875 C-43.07515277 39.99016517 -45.34279518 32.63185162 -45.2109375 23.65234375 C-44.59733478 15.9368577 -41.37342945 9.52462984 -36 4 C-24.78774716 -5.06223303 -12.96423782 -6.6997667 0 0 Z " fill="#FCFCFC" transform="translate(127,61)"/>
<path d="M0 0 C2.08118422 2.66463759 3.7944056 5.32634347 5.375 8.3125 C7.00981809 11.34787871 8.74310256 14.04367464 10.875 16.75 C13 20 13 20 12.8125 22.9375 C12.544375 23.618125 12.27625 24.29875 12 25 C9 25 9 25 7 24 C7.66 23.01 8.32 22.02 9 21 C9 20.34 9 19.68 9 19 C8.34 19 7.68 19 7 19 C6.67 21.31 6.34 23.62 6 26 C2.41547959 22.61461961 -0.67848232 19.37516793 -3 15 C-2.75 11.625 -2.75 11.625 -2 9 C-1.67 9.66 -1.34 10.32 -1 11 C-0.34 11 0.32 11 1 11 C1.33 9.68 1.66 8.36 2 7 C-0.475 6.01 -0.475 6.01 -3 5 C-1.125 1.125 -1.125 1.125 0 0 Z " fill="#3E3E3E" transform="translate(37,146)"/>
<path d="M0 0 C0.98742187 0.56589844 1.97484375 1.13179687 2.9921875 1.71484375 C4.28644206 2.45575759 5.58071379 3.19664145 6.875 3.9375 C7.52597656 4.31068359 8.17695312 4.68386719 8.84765625 5.06835938 C12.38746834 7.10133078 12.38746834 7.10133078 16 9 C15.34 10.65 14.68 12.3 14 14 C13.34 13.67 12.68 13.34 12 13 C12 13.66 12 14.32 12 15 C12.84884766 15.39832031 12.84884766 15.39832031 13.71484375 15.8046875 C14.44832031 16.15789062 15.18179688 16.51109375 15.9375 16.875 C16.66839844 17.22304687 17.39929688 17.57109375 18.15234375 17.9296875 C20 19 20 19 21 21 C12.5714503 19.00226249 5.46573535 15.27114954 -2 11 C-2 8 -2 8 0 6 C-0.99 5.34 -1.98 4.68 -3 4 C-1.68 3.67 -0.36 3.34 1 3 C0.67 2.01 0.34 1.02 0 0 Z " fill="#3B3B3B" transform="translate(64,179)"/>
<path d="M0 0 C4.13621084 3.3810038 7.81316569 6.66590534 11 11 C10.2265625 11.61875 10.2265625 11.61875 9.4375 12.25 C8.963125 12.8275 8.48875 13.405 8 14 C8.22757731 16.16299211 8.22757731 16.16299211 9 18 C5.97035798 18.28878737 4.46002266 18.31556695 1.91015625 16.56640625 C-2.98227794 11.26023556 -2.98227794 11.26023556 -3.03515625 7.5 C-1.77913244 1.77913244 -1.77913244 1.77913244 0 0 Z " fill="#383838" transform="translate(174,45)"/>
<path d="M0 0 C2.8125 0.875 2.8125 0.875 4.8125 2.875 C4.4375 5.5 4.4375 5.5 3.8125 7.875 C-5.1875 10.875 -5.1875 10.875 -8.1875 9.875 C-8.1875 8.225 -8.1875 6.575 -8.1875 4.875 C-9.1775 4.545 -10.1675 4.215 -11.1875 3.875 C-11.1875 2.885 -11.1875 1.895 -11.1875 0.875 C-10.1975 1.205 -9.2075 1.535 -8.1875 1.875 C-8.1875 2.535 -8.1875 3.195 -8.1875 3.875 C-7.48625 3.194375 -6.785 2.51375 -6.0625 1.8125 C-3.1875 -0.125 -3.1875 -0.125 0 0 Z " fill="#383838" transform="translate(101.1875,114.125)"/>
<path d="M0 0 C0.66 0.33 1.32 0.66 2 1 C2 1.99 2 2.98 2 4 C3.88638659 6.13790481 5.44288177 7.72144088 8 9 C8.33 7.35 8.66 5.7 9 4 C10.875 4.3125 10.875 4.3125 13 5 C13.99 6.485 13.99 6.485 15 8 C13.25254702 11.07884573 11.55489105 13.55961387 9 16 C8.55269531 15.54109375 8.10539063 15.0821875 7.64453125 14.609375 C4.25029352 11.16447701 0.86423288 7.92744915 -3 5 C-2.34 5 -1.68 5 -1 5 C-0.67 3.35 -0.34 1.7 0 0 Z " fill="#3F3F3F" transform="translate(137,126)"/>
<path d="M0 0 C0.99 0.33 1.98 0.66 3 1 C2.67 1.99 2.34 2.98 2 4 C1.01 4 0.02 4 -1 4 C-1 4.99 -1 5.98 -1 7 C-0.34 7 0.32 7 1 7 C0.67 7.99 0.34 8.98 0 10 C-0.99 10 -1.98 10 -3 10 C-2.01 10.66 -1.02 11.32 0 12 C-0.66 13.32 -1.32 14.64 -2 16 C-2.556875 15.690625 -3.11375 15.38125 -3.6875 15.0625 C-6.12540433 13.94238179 -8.36224186 13.43962636 -11 13 C-8.36517737 7.73035473 -4.20056089 4.02096446 0 0 Z " fill="#353535" transform="translate(51,44)"/>
<path d="M0 0 C2.7558573 4.13378595 3.10756445 6.05203546 3 11 C0.03 11 -2.94 11 -6 11 C-6 8.03 -6 5.06 -6 2 C-4.02 1.34 -2.04 0.68 0 0 Z " fill="#323232" transform="translate(163,159)"/>
<path d="M0 0 C0.33 0.66 0.66 1.32 1 2 C1.99 2 2.98 2 4 2 C4.33 3.32 4.66 4.64 5 6 C5.66 6 6.32 6 7 6 C7 5.34 7 4.68 7 4 C7.66 4.33 8.32 4.66 9 5 C9 5.66 9 6.32 9 7 C7.20703125 8.3671875 7.20703125 8.3671875 4.8125 9.875 C1.37649041 12.08618598 -1.86428673 14.37004693 -5 17 C-4.835 16.236875 -4.67 15.47375 -4.5 14.6875 C-3.90854604 11.96403764 -3.90854604 11.96403764 -4 9 C-2.35 9 -0.7 9 1 9 C-0.66924071 5.95865509 -0.66924071 5.95865509 -3 5 C-2.01 4.67 -1.02 4.34 0 4 C-0.33 3.01 -0.66 2.02 -1 1 C-0.67 0.67 -0.34 0.34 0 0 Z M-3 2 C-1 3 -1 3 -1 3 Z " fill="#404040" transform="translate(84,124)"/>
<path d="M0 0 C1.1875 1.6875 1.1875 1.6875 2 4 C0.74646949 6.92490452 -0.37150289 8.56790824 -3 10.375 C-5 11 -5 11 -8 10 C-7.67 9.34 -7.34 8.68 -7 8 C-7.61875 8.20625 -8.2375 8.4125 -8.875 8.625 C-9.57625 8.74875 -10.2775 8.8725 -11 9 C-11.66 8.34 -12.32 7.68 -13 7 C-12.67 6.34 -12.34 5.68 -12 5 C-11.34 5 -10.68 5 -10 5 C-10 5.66 -10 6.32 -10 7 C-9.34 7 -8.68 7 -8 7 C-8 6.01 -8 5.02 -8 4 C-8.99 3.67 -9.98 3.34 -11 3 C-10.28972656 2.86722656 -9.57945312 2.73445312 -8.84765625 2.59765625 C-7.92855469 2.42105469 -7.00945312 2.24445313 -6.0625 2.0625 C-5.14597656 1.88847656 -4.22945312 1.71445313 -3.28515625 1.53515625 C-1.04710156 1.22285012 -1.04710156 1.22285012 0 0 Z " fill="#343434" transform="translate(155,186)"/>
<path d="M0 0 C0.99 0.99 1.98 1.98 3 3 C2.34 3 1.68 3 1 3 C1.309375 3.763125 1.61875 4.52625 1.9375 5.3125 C2.67893593 7.18789677 3.36228217 9.08684652 4 11 C2.8553125 11.1546875 2.8553125 11.1546875 1.6875 11.3125 C-1.17059424 12.04364039 -2.15742885 12.76951913 -4 15 C-4.33 14.01 -4.66 13.02 -5 12 C-4.67 11.34 -4.34 10.68 -4 10 C-4.66 9.67 -5.32 9.34 -6 9 C-2.25 2.25 -2.25 2.25 0 0 Z " fill="#323232" transform="translate(182,157)"/>
<path d="M0 0 C0.66 0.33 1.32 0.66 2 1 C2.99 1 3.98 1 5 1 C4.67 2.32 4.34 3.64 4 5 C4.99 5.66 5.98 6.32 7 7 C2.545 10.96 2.545 10.96 -2 15 C-2.99 14.67 -3.98 14.34 -5 14 C-5 13.34 -5 12.68 -5 12 C-4.34 12 -3.68 12 -3 12 C-2.855625 11.195625 -2.71125 10.39125 -2.5625 9.5625 C-2 7 -2 7 -1 6 C-1 5.175 -1 4.35 -1 3.5 C-1 1 -1 1 0 0 Z " fill="#333333" transform="translate(90,54)"/>
<path d="M0 0 C1.98 0.99 3.96 1.98 6 3 C5.01 3.33 4.02 3.66 3 4 C2.34 3.67 1.68 3.34 1 3 C1.45375 3.598125 1.9075 4.19625 2.375 4.8125 C6 9.69230769 6 9.69230769 6 12 C5.67 12.99 5.34 13.98 5 15 C3.96939453 14.27683594 3.96939453 14.27683594 2.91796875 13.5390625 C2.01691406 12.90742187 1.11585938 12.27578125 0.1875 11.625 C-0.70582031 10.99851562 -1.59914062 10.37203125 -2.51953125 9.7265625 C-4.33267878 8.46449761 -6.16188211 7.22541192 -8 6 C-7.67 5.01 -7.34 4.02 -7 3 C-6.01 3 -5.02 3 -4 3 C-3.67 4.32 -3.34 5.64 -3 7 C-1.68 7.33 -0.36 7.66 1 8 C0.649375 7.05125 0.29875 6.1025 -0.0625 5.125 C-1 2 -1 2 0 0 Z M-4 2 C-2 3 -2 3 -2 3 Z " fill="#3D3D3D" transform="translate(158,33)"/>
<path d="M0 0 C0.66 0 1.32 0 2 0 C3 3 3 3 3 4 C3.65035814 5.34136367 4.3162955 6.67532254 5 8 C4.34 8 3.68 8 3 8 C5.94729537 9.15811388 5.94729537 9.15811388 9 9 C9 12 9 12 8 15 C4.15211415 13.4323428 1.62367103 11.20670904 -1 8 C-1.37688506 4.79647701 -1.44430855 2.88861709 0 0 Z " fill="#313131" transform="translate(44,165)"/>
<path d="M0 0 C2.0625 0.4375 2.0625 0.4375 4 1 C4.33 3.64 4.66 6.28 5 9 C2.625 8.6875 2.625 8.6875 0 8 C-0.66 7.01 -1.32 6.02 -2 5 C-2 5.66 -2 6.32 -2 7 C-3.32 6.67 -4.64 6.34 -6 6 C-6 4.68 -6 3.36 -6 2 C-3 1 -3 1 -1 1 C-0.67 0.67 -0.34 0.34 0 0 Z " fill="#333333" transform="translate(154,32)"/>
<path d="M0 0 C0.33 0.66 0.66 1.32 1 2 C3.3140622 2.73075648 5.64828869 3.40138258 8 4 C8 4.99 8 5.98 8 7 C7.01 7.33 6.02 7.66 5 8 C4.67 8.66 4.34 9.32 4 10 C4 9.34 4 8.68 4 8 C1.95852708 6.93912846 1.95852708 6.93912846 -0.4375 6.0625 C-3 5 -3 5 -6 3 C-4.02 2.01 -2.04 1.02 0 0 Z " fill="#3F3F3F" transform="translate(128,111)"/>
<path d="M0 0 C0.66 0.33 1.32 0.66 2 1 C2 1.99 2 2.98 2 4 C1.34 4 0.68 4 0 4 C0 4.99 0 5.98 0 7 C-0.33 7.33 -0.66 7.66 -1 8 C-0.01 8.33 0.98 8.66 2 9 C1.67 9.66 1.34 10.32 1 11 C-1.97 10.505 -1.97 10.505 -5 10 C-5 8.35 -5 6.7 -5 5 C-5.99 4.67 -6.98 4.34 -8 4 C-8 3.01 -8 2.02 -8 1 C-7.01 1.33 -6.02 1.66 -5 2 C-5 2.66 -5 3.32 -5 4 C-3.35 2.68 -1.7 1.36 0 0 Z " fill="#303030" transform="translate(98,114)"/>
<path d="M0 0 C3.125 0.375 3.125 0.375 6 1 C6 1.99 6 2.98 6 4 C5.01 4.33 4.02 4.66 3 5 C4.32 5.99 5.64 6.98 7 8 C4.69 8.66 2.38 9.32 0 10 C0.33 9.34 0.66 8.68 1 8 C0.01 7.01 -0.98 6.02 -2 5 C-1.34 4.67 -0.68 4.34 0 4 C-0.66 3.34 -1.32 2.68 -2 2 C-1.34 1.34 -0.68 0.68 0 0 Z M6 0 C8 1 8 1 8 1 Z " fill="#333333" transform="translate(78,27)"/>
<path d="M0 0 C2.375 -0.1875 2.375 -0.1875 5 0 C5.66 0.99 6.32 1.98 7 3 C5.71034824 4.37562854 4.37310707 5.70766393 3 7 C2.34 7 1.68 7 1 7 C1.33 8.65 1.66 10.3 2 12 C0.62437146 10.71034824 -0.70766393 9.37310707 -2 8 C-2 7.34 -2 6.68 -2 6 C-1.01 5.34 -0.02 4.68 1 4 C0.67 2.68 0.34 1.36 0 0 Z " fill="#414141" transform="translate(181,57)"/>
<path d="M0 0 C1.65 0 3.3 0 5 0 C5.33 1.65 5.66 3.3 6 5 C4.02 6.32 2.04 7.64 0 9 C-0.84454356 5.62182575 -1.10844919 3.32534757 0 0 Z " fill="#3D3D3D" transform="translate(165,179)"/>
<path d="M0 0 C2.5 1.1875 2.5 1.1875 5 3 C5.3125 5.6875 5.3125 5.6875 5 8 C4.01 8 3.02 8 2 8 C2 8.66 2 9.32 2 10 C0.68 10.33 -0.64 10.66 -2 11 C-2 8 -2 8 0 6 C-0.99 5.34 -1.98 4.68 -3 4 C-1.68 3.67 -0.36 3.34 1 3 C0.67 2.01 0.34 1.02 0 0 Z " fill="#424242" transform="translate(64,179)"/>
<path d="M0 0 C-0.33 2.31 -0.66 4.62 -1 7 C-3.62113708 7 -5.50935112 6.68707555 -8 6 C-8.33 4.35 -8.66 2.7 -9 1 C-8.01 1.33 -7.02 1.66 -6 2 C-1.6 0 -1.6 0 0 0 Z " fill="#323232" transform="translate(195,72)"/>
<path d="M0 0 C1.32 1.32 2.64 2.64 4 4 C3.01 4.33 2.02 4.66 1 5 C0.67 5.99 0.34 6.98 0 8 C-2.64 7.34 -5.28 6.68 -8 6 C-7.34 5.01 -6.68 4.02 -6 3 C-4.35 3.33 -2.7 3.66 -1 4 C-0.67 2.68 -0.34 1.36 0 0 Z " fill="#3E3E3E" transform="translate(128,121)"/>
<path d="M0 0 C0.33 0.66 0.66 1.32 1 2 C0.67 2.33 0.34 2.66 0 3 C0.66 3.33 1.32 3.66 2 4 C2 4.99 2 5.98 2 7 C0.02 7.33 -1.96 7.66 -4 8 C-4 7.01 -4 6.02 -4 5 C-4.66 4.67 -5.32 4.34 -6 4 C-3.94766315 1.7522025 -2.99332739 0.9977758 0 0 Z " fill="#323232" transform="translate(83,126)"/>
<path d="M0 0 C1.98 1.65 3.96 3.3 6 5 C5.01 5.495 5.01 5.495 4 6 C3.67 6.66 3.34 7.32 3 8 C2.34 7.34 1.68 6.68 1 6 C0.01 6.33 -0.98 6.66 -2 7 C-1.125 1.125 -1.125 1.125 0 0 Z M-3 7 C-2.34 7.66 -1.68 8.32 -1 9 C-1.66 9 -2.32 9 -3 9 C-3 8.34 -3 7.68 -3 7 Z " fill="#303030" transform="translate(174,45)"/>
<path d="M0 0 C2.3125 0.1875 2.3125 0.1875 5 1 C6.875 3.25 6.875 3.25 8 6 C7.6875 8.8125 7.6875 8.8125 7 11 C4 11 4 11 2 10 C2.66 9.01 3.32 8.02 4 7 C4 5.68 4 4.36 4 3 C3.34 3 2.68 3 2 3 C2 2.34 2 1.68 2 1 C1.34 0.67 0.68 0.34 0 0 Z " fill="#444444" transform="translate(42,160)"/>
<path d="M0 0 C1.98 0.66 3.96 1.32 6 2 C5.01 2.33 4.02 2.66 3 3 C3 3.99 3 4.98 3 6 C1 7.6875 1 7.6875 -1 9 C-2.25541557 5.23375329 -1.37061958 3.62811066 0 0 Z " fill="#353535" transform="translate(39,157)"/>
<path d="M0 0 C1.9451 2.91765 2.45276317 4.62537285 3 8 C1.02 8.99 1.02 8.99 -1 10 C-1.33 9.34 -1.66 8.68 -2 8 C-2.66 7.34 -3.32 6.68 -4 6 C-2.68 4.02 -1.36 2.04 0 0 Z " fill="#434343" transform="translate(36,61)"/>
<path d="M0 0 C2.1875 0.3125 2.1875 0.3125 4 1 C3 4 3 4 1 5 C0.67 5.99 0.34 6.98 0 8 C-1.32 7.67 -2.64 7.34 -4 7 C-3.67 6.34 -3.34 5.68 -3 5 C-3 4.34 -3 3.68 -3 3 C-1.75 1.3125 -1.75 1.3125 0 0 Z " fill="#323232" transform="translate(154,140)"/>
<path d="M0 0 C0.99 0.33 1.98 0.66 3 1 C3.33 1.99 3.66 2.98 4 4 C3.00390625 5.82421875 3.00390625 5.82421875 1.5625 7.6875 C1.08941406 8.31011719 0.61632813 8.93273437 0.12890625 9.57421875 C-0.24363281 10.04472656 -0.61617187 10.51523438 -1 11 C-1.66 10.67 -2.32 10.34 -3 10 C-3 8.68 -3 7.36 -3 6 C-2.01 6 -1.02 6 0 6 C0 4.02 0 2.04 0 0 Z " fill="#424242" transform="translate(45,57)"/>
<path d="M0 0 C0.99 0.66 1.98 1.32 3 2 C1.25 9.75 1.25 9.75 -1 12 C-1.66 11.01 -2.32 10.02 -3 9 C-2.34 9 -1.68 9 -1 9 C-1.33 7.68 -1.66 6.36 -2 5 C-1.34 5 -0.68 5 0 5 C0.33 4.34 0.66 3.68 1 3 C0.34 2.67 -0.32 2.34 -1 2 C-0.67 1.34 -0.34 0.68 0 0 Z " fill="#3E3E3E" transform="translate(171,42)"/>
<path d="M0 0 C0.66 0 1.32 0 2 0 C2 1.98 2 3.96 2 6 C1.34 6 0.68 6 0 6 C-0.33 7.98 -0.66 9.96 -1 12 C-2.1875 10.5 -2.1875 10.5 -3 8 C-2.27101296 5.21175762 -1.1843275 2.62334908 0 0 Z " fill="#3E3E3E" transform="translate(28,75)"/>
<path d="M0 0 C2.97 0 5.94 0 9 0 C9 1.32 9 2.64 9 4 C8.01 4.495 8.01 4.495 7 5 C6.67 4.34 6.34 3.68 6 3 C4.02 3 2.04 3 0 3 C0 2.01 0 1.02 0 0 Z " fill="#2F2F2F" transform="translate(41,55)"/>
<path d="M0 0 C2.31 0.66 4.62 1.32 7 2 C6.67 3.32 6.34 4.64 6 6 C4.35 5.67 2.7 5.34 1 5 C0.67 3.35 0.34 1.7 0 0 Z " fill="#343434" transform="translate(159,36)"/>
<path d="M0 0 C1.65 0.33 3.3 0.66 5 1 C5.33 1.99 5.66 2.98 6 4 C5.34 4 4.68 4 4 4 C4.33 5.65 4.66 7.3 5 9 C4.01 8.67 3.02 8.34 2 8 C1.67 7.01 1.34 6.02 1 5 C1.33 4.67 1.66 4.34 2 4 C1.01 3.34 0.02 2.68 -1 2 C-0.67 1.34 -0.34 0.68 0 0 Z " fill="#323232" transform="translate(141,26)"/>
<path d="M0 0 C2.5132982 2.5132982 2 3.62447307 2 7 C0.35 7 -1.3 7 -3 7 C-3.33 5.68 -3.66 4.36 -4 3 C-2.68 2.01 -1.36 1.02 0 0 Z " fill="#3D3D3D" transform="translate(61,36)"/>
<path d="M0 0 C3 1 3 1 4.1875 3.0625 C4.455625 3.701875 4.72375 4.34125 5 5 C3.02 5.66 1.04 6.32 -1 7 C-1.625 5.1875 -1.625 5.1875 -2 3 C-1.34 2.01 -0.68 1.02 0 0 Z " fill="#353535" transform="translate(187,148)"/>
<path d="M0 0 C3.125 -0.1875 3.125 -0.1875 6 0 C6 1.65 6 3.3 6 5 C3.36 4.34 0.72 3.68 -2 3 C-1.34 2.01 -0.68 1.02 0 0 Z " fill="#404040" transform="translate(118,55)"/>
<path d="M0 0 C1.98 0.495 1.98 0.495 4 1 C3.125 5.75 3.125 5.75 2 8 C0 7 0 7 -1 5 C-1 2 -1 2 0 0 Z " fill="#313131" transform="translate(138,124)"/>
<path d="M0 0 C2.475 0.99 2.475 0.99 5 2 C4.34 3.32 3.68 4.64 3 6 C2.01 6 1.02 6 0 6 C-0.66 4.68 -1.32 3.36 -2 2 C-1.34 1.34 -0.68 0.68 0 0 Z " fill="#323232" transform="translate(72,135)"/>
<path d="M0 0 C0.598125 0.20625 1.19625 0.4125 1.8125 0.625 C1.8125 1.615 1.8125 2.605 1.8125 3.625 C0.1625 4.285 -1.4875 4.945 -3.1875 5.625 C-3.8475 4.305 -4.5075 2.985 -5.1875 1.625 C-2.1875 -0.375 -2.1875 -0.375 0 0 Z " fill="#353535" transform="translate(91.1875,109.375)"/>
<path d="M0 0 C0.66 0 1.32 0 2 0 C2.66 1.65 3.32 3.3 4 5 C2.68 5 1.36 5 0 5 C-0.66 4.01 -1.32 3.02 -2 2 C-1.34 1.34 -0.68 0.68 0 0 Z " fill="#3B3B3B" transform="translate(179,161)"/>
<path d="M0 0 C0 0.66 0 1.32 0 2 C-0.99 1.67 -1.98 1.34 -3 1 C-5.22574335 0.77548542 -7.45581519 0.59217122 -9.6875 0.4375 C-10.86699219 0.35371094 -12.04648438 0.26992187 -13.26171875 0.18359375 C-14.16535156 0.12300781 -15.06898437 0.06242187 -16 0 C-16 -0.33 -16 -0.66 -16 -1 C-13.89722877 -1.22197585 -11.79267698 -1.42713637 -9.6875 -1.625 C-8.51574219 -1.74101563 -7.34398438 -1.85703125 -6.13671875 -1.9765625 C-3 -2 -3 -2 0 0 Z " fill="#5C5C5C" transform="translate(123,117)"/>
<path d="M0 0 C0.66 0 1.32 0 2 0 C1.67 0.99 1.34 1.98 1 3 C0.67 2.01 0.34 1.02 0 0 Z M-2 2 C-1.01 2.33 -0.02 2.66 1 3 C0.67 4.32 0.34 5.64 0 7 C-1.32 6.34 -2.64 5.68 -4 5 C-4 4.34 -4 3.68 -4 3 C-3.34 2.67 -2.68 2.34 -2 2 Z " fill="#323232" transform="translate(143,66)"/>
<path d="M0 0 C0.99 1.32 1.98 2.64 3 4 C2.67 4.66 2.34 5.32 2 6 C0.68 6 -0.64 6 -2 6 C-2 4.35 -2 2.7 -2 1 C-1.34 0.67 -0.68 0.34 0 0 Z " fill="#343434" transform="translate(180,57)"/>
<path d="M0 0 C0.33 0 0.66 0 1 0 C1 1.98 1 3.96 1 6 C1.99 5.67 2.98 5.34 4 5 C3.625 6.9375 3.625 6.9375 3 9 C2.01 9.495 2.01 9.495 1 10 C0.01 8.68 -0.98 7.36 -2 6 C-1.34 6 -0.68 6 0 6 C0 4.02 0 2.04 0 0 Z " fill="#E9E9E9" transform="translate(166,164)"/>
<path d="M0 0 C0.66 0.33 1.32 0.66 2 1 C2 1.66 2 2.32 2 3 C2.99 2.67 3.98 2.34 5 2 C5.66 2.66 6.32 3.32 7 4 C4.64561267 5.42944945 3.51967567 6.08661261 0.75 5.625 C0.1725 5.41875 -0.405 5.2125 -1 5 C-0.67 3.35 -0.34 1.7 0 0 Z " fill="#313131" transform="translate(56,40)"/>
<path d="M0 0 C1.32 0.66 2.64 1.32 4 2 C4 2.99 4 3.98 4 5 C3.01 5 2.02 5 1 5 C1 4.34 1 3.68 1 3 C0.01 3.33 -0.98 3.66 -2 4 C-1.34 2.68 -0.68 1.36 0 0 Z " fill="#3D3D3D" transform="translate(152,136)"/>
<path d="M0 0 C0.99 0.99 1.98 1.98 3 3 C1.02 3.99 -0.96 4.98 -3 6 C-3 3 -3 3 -1.5 1.3125 C-0.7575 0.6628125 -0.7575 0.6628125 0 0 Z " fill="#ECECEC" transform="translate(88,118)"/>
<path d="M0 0 C0.33 0.66 0.66 1.32 1 2 C0.67 2.66 0.34 3.32 0 4 C0.99 4.33 1.98 4.66 3 5 C1.02 5.99 1.02 5.99 -1 7 C-1.99 5.35 -2.98 3.7 -4 2 C-2.68 1.34 -1.36 0.68 0 0 Z " fill="#414141" transform="translate(137,64)"/>
<path d="M0 0 C1.5625 1.8125 1.5625 1.8125 3 4 C2 7 2 7 0 8 C-0.38063221 5.6739143 -0.71269945 3.33944736 -1 1 C-0.67 0.67 -0.34 0.34 0 0 Z " fill="#313131" transform="translate(38,59)"/>
<path d="M0 0 C2.0625 0.4375 2.0625 0.4375 4 1 C4 2.32 4 3.64 4 5 C2.68 5.33 1.36 5.66 0 6 C-0.38218767 4.34385343 -0.71395102 2.67542976 -1 1 C-0.67 0.67 -0.34 0.34 0 0 Z " fill="#3C3C3C" transform="translate(150,190)"/>
<path d="M0 0 C1.32 0.66 2.64 1.32 4 2 C4 4 4 4 3 7 C1.68 5.68 0.36 4.36 -1 3 C-0.34 3 0.32 3 1 3 C0.67 2.01 0.34 1.02 0 0 Z " fill="#484848" transform="translate(160,41)"/>
<path d="M0 0 C0.66 0.66 1.32 1.32 2 2 C0.35 3.98 -1.3 5.96 -3 8 C-3.99 7.67 -4.98 7.34 -6 7 C-4.02 4.69 -2.04 2.38 0 0 Z " fill="#E3E3E3" transform="translate(185,168)"/>
<path d="M0 0 C0.66 0.66 1.32 1.32 2 2 C2.99 1.67 3.98 1.34 5 1 C4.1875 2.9375 4.1875 2.9375 3 5 C2.01 5.33 1.02 5.66 0 6 C-1 3 -1 3 0 0 Z " fill="#414141" transform="translate(188,144)"/>
<path d="M0 0 C0.66 0.33 1.32 0.66 2 1 C2.33 1.99 2.66 2.98 3 4 C2.01 4.33 1.02 4.66 0 5 C-0.99 4.34 -1.98 3.68 -3 3 C-3 2.34 -3 1.68 -3 1 C-2.01 0.67 -1.02 0.34 0 0 Z " fill="#434343" transform="translate(89,114)"/>
<path d="M0 0 C0.99 0.33 1.98 0.66 3 1 C2.34 2.65 1.68 4.3 1 6 C0.01 4.68 -0.98 3.36 -2 2 C-1.34 1.34 -0.68 0.68 0 0 Z " fill="#404040" transform="translate(54,41)"/>
</svg>
