<?xml version="1.0" encoding="utf-8"?>
<!-- Generator: Adobe Illustrator 27.9.6, SVG Export Plug-In . SVG Version: 9.03 Build 54986)  -->
<svg version="1.1" id="Calque_1" xmlns="http://www.w3.org/2000/svg" xmlns:xlink="http://www.w3.org/1999/xlink" x="0px" y="0px"
	 viewBox="0 0 270 283.5" style="enable-background:new 0 0 270 283.5;" xml:space="preserve">
<style type="text/css">
	.st0{fill:none;stroke:#696969;stroke-width:4;stroke-miterlimit:10;}
	.st1{fill:#278BCB;stroke:#696969;stroke-width:4;stroke-miterlimit:10;}
	.st2{fill:#696969;}
</style>
<g>
	<g>
		<path class="st0" d="M50.21,201.8v-21.3c0-12.96,10.15-23.51,22.63-23.51h122.13c12.48,0,22.63,10.54,22.63,23.51v20.09"/>
	</g>
	<g>
		<line class="st1" x1="136.43" y1="143.07" x2="134.43" y2="200.45"/>
	</g>
	<g>
		<g>
			<g>
				<g>
					<g>
						<g>
							<path class="st2" d="M138.3,20.61l0.22,12.29l0.06,3.39l3.36,0.49c6.54,0.96,12.61,3.34,18.05,7.06l2.79,1.91l2.35-2.43
								l8.5-8.81l5.64,5.44l-8.5,8.81l-2.35,2.43l2.01,2.72c3.91,5.3,6.5,11.29,7.7,17.79l0.61,3.34l3.39-0.06l12.29-0.22l0.14,7.84
								l-12.35,0.22l-3.37,0.06l-0.51,3.33c-1.01,6.5-3.41,12.53-7.14,17.92l-1.93,2.79l2.45,2.36l8.96,8.64l-5.44,5.64l-9.02-8.7
								l-2.42-2.34l-2.72,1.98c-5.26,3.84-11.18,6.38-17.61,7.56l-3.34,0.61l0.06,3.39l0.22,12.64l-7.84,0.14l-0.22-12.7l-0.06-3.37
								l-3.33-0.51c-6.42-0.99-12.39-3.35-17.73-7.01l-2.79-1.91l-2.35,2.43l-8.84,9.16l-5.64-5.44l8.84-9.16l2.35-2.43l-2.01-2.72
								c-3.85-5.21-6.42-11.09-7.64-17.47l-0.63-3.31l-3.37,0.06l-12.7,0.23l-0.14-7.84l12.64-0.22l3.39-0.06l0.49-3.36
								c0.95-6.46,3.29-12.47,6.94-17.86l1.89-2.79l-2.42-2.34l-9.02-8.71l5.44-5.64l8.96,8.64l2.45,2.36l2.72-2.03
								c5.25-3.92,11.19-6.54,17.66-7.77l3.31-0.63l-0.06-3.37l-0.22-12.35L138.3,20.61 M142.22,16.53l-15.84,0.28l0.29,16.35
								c-6.86,1.31-13.47,4.14-19.3,8.49L95.55,30.24l-11,11.4l11.9,11.48c-4.05,5.98-6.57,12.66-7.58,19.52l-16.64,0.29l0.28,15.84
								l16.7-0.3c1.3,6.78,4.08,13.32,8.35,19.1l-11.62,12.04l11.4,11l11.62-12.04c5.93,4.06,12.56,6.61,19.38,7.66l0.3,16.7
								l15.84-0.28l-0.3-16.64c6.82-1.25,13.41-4.01,19.24-8.27l11.9,11.48l11-11.4l-11.83-11.42c4.14-5.98,6.74-12.69,7.8-19.59
								l16.35-0.29l-0.28-15.84l-16.29,0.29c-1.27-6.9-4.07-13.56-8.41-19.44l11.28-11.69l-11.4-11l-11.28,11.69
								c-6.03-4.13-12.79-6.7-19.73-7.72L142.22,16.53L142.22,16.53z"/>
						</g>
					</g>
				</g>
				<g>
					<g>
						<g>
							<path class="st2" d="M135.6,52.83c6.97,0,13.56,2.66,18.57,7.49c5.13,4.95,8.03,11.62,8.15,18.77
								c0.13,7.15-2.53,13.92-7.48,19.05c-5.08,5.26-11.91,8.16-19.25,8.16c-6.97,0-13.57-2.66-18.57-7.49
								c-10.61-10.24-10.91-27.2-0.67-37.82C121.43,55.72,128.27,52.83,135.6,52.83 M135.6,48.83c-8.06,0-16.1,3.14-22.13,9.38
								c-11.77,12.2-11.43,31.7,0.77,43.47c5.96,5.75,13.66,8.61,21.34,8.61c8.06,0,16.1-3.14,22.13-9.38
								c11.77-12.2,11.43-31.7-0.77-43.47C150.99,51.69,143.29,48.83,135.6,48.83L135.6,48.83z"/>
						</g>
					</g>
				</g>
			</g>
		</g>
	</g>
	<g>
		<g>
			<g>
				<path class="st2" d="M50.9,202.64l24.28,12.4L50.9,228.39l-24.28-13.36L50.9,202.64 M50.9,198.14l-32.82,16.76l32.82,18.05
					l32.82-18.05L50.9,198.14L50.9,198.14z"/>
			</g>
		</g>
		<g>
			<g>
				<path class="st2" d="M79.66,223.93l-1.58,25.58l-23.34,13.54l1.21-25.66L79.66,223.93 M84.11,216.8l-32.05,18.2l-1.67,35.19
					l31.54-18.3L84.11,216.8L84.11,216.8z"/>
			</g>
		</g>
		<g>
			<g>
				<path class="st2" d="M20.67,223.46l25.29,14.02l-1.45,25.74l-24.16-13.9L20.67,223.46 M16.76,216.71l-0.44,34.9l31.82,18.3
					l1.95-34.72L16.76,216.71L16.76,216.71z"/>
			</g>
		</g>
	</g>
	<g>
		<g>
			<g>
				<path class="st2" d="M134.59,202.64l24.28,12.4l-24.28,13.36l-24.28-13.36L134.59,202.64 M134.59,198.14l-32.82,16.76
					l32.82,18.05l32.82-18.05L134.59,198.14L134.59,198.14z"/>
			</g>
		</g>
		<g>
			<g>
				<path class="st2" d="M163.35,223.93l-1.58,25.58l-23.34,13.54l1.21-25.66L163.35,223.93 M167.8,216.8l-32.05,18.2l-1.67,35.19
					l31.54-18.3L167.8,216.8L167.8,216.8z"/>
			</g>
		</g>
		<g>
			<g>
				<path class="st2" d="M104.36,223.46l25.29,14.02l-1.45,25.74l-24.16-13.9L104.36,223.46 M100.45,216.71l-0.44,34.9l31.82,18.3
					l1.95-34.72L100.45,216.71L100.45,216.71z"/>
			</g>
		</g>
	</g>
	<g>
		<g>
			<g>
				<path class="st2" d="M218.28,202.64l24.28,12.4l-24.28,13.36L194,215.04L218.28,202.64 M218.28,198.14l-32.82,16.76l32.82,18.05
					l32.82-18.05L218.28,198.14L218.28,198.14z"/>
			</g>
		</g>
		<g>
			<g>
				<path class="st2" d="M247.04,223.93l-1.58,25.58l-23.34,13.54l1.21-25.66L247.04,223.93 M251.49,216.8l-32.05,18.2l-1.67,35.19
					l31.54-18.3L251.49,216.8L251.49,216.8z"/>
			</g>
		</g>
		<g>
			<g>
				<path class="st2" d="M188.05,223.46l25.29,14.02l-1.45,25.74l-24.16-13.9L188.05,223.46 M184.14,216.71l-0.44,34.9l31.82,18.3
					l1.95-34.72L184.14,216.71L184.14,216.71z"/>
			</g>
		</g>
	</g>
</g>
</svg>
